<!-- icon666.com - MILLIONS vector ICONS FREE --><svg id="cart" enable-background="new 0 0 512 512" viewBox="0 0 512 512" xmlns="http://www.w3.org/2000/svg"><g><path d="m427 283.9 56.8-121.8c7.8-16.8.6-36.7-16.2-44.5-4.4-2.1-9.3-3.1-14.2-3.1h-323.8l-3.1-12.8c-6.5-26.7-30.4-45.5-57.8-45.4h-36.2c-4.1 0-7.5 3.4-7.5 7.5s3.4 7.5 7.5 7.5h36.2c20.5 0 38.3 14 43.2 33.9l4.6 18.5 46.4 188.8 4.5 18.5c2.9 11.7 9.2 22.3 18.3 30.3-.4 0-.8 0-1.2 0-26.1-.1-47.2 21.1-47.3 47.1-.1 26.1 21.1 47.3 47.1 47.3 26.1 0 47.3-21.1 47.3-47.1 0-12.1-4.7-23.8-13-32.6 2.2.3 4.4.4 6.7.4h146.6c-17.7 19.1-16.6 48.9 2.4 66.6s48.8 16.6 66.6-2.4c17.7-19.1 16.6-48.9-2.4-66.6-8.5-7.9-19.7-12.4-31.4-12.6-.1 0-.2 0-.3 0h-181.7c-20.5 0-38.3-14-43.2-33.9l-2.3-9.2h193.4c23.2-.1 44.2-13.5 54-34.4zm-234-98h217.2c4.1 0 7.5 3.4 7.5 7.5s-3.4 7.5-7.5 7.5h-217.2c-4.1 0-7.5-3.4-7.5-7.5s3.4-7.5 7.5-7.5zm183 60.8h-148.8c-4.1 0-7.5-3.4-7.5-7.5s3.4-7.5 7.5-7.5h148.8c4.1 0 7.5 3.4 7.5 7.5s-3.3 7.5-7.5 7.5z" fill="#000000" style="fill: rgb(255, 255, 255);"></path></g></svg>